<svg preserveAspectRatio="none" width="100%" height="100%" overflow="visible" style="display: block;" viewBox="0 0 60.0116 59.24" fill="none" xmlns="http://www.w3.org/2000/svg">
<g id="Group">
<path id="Vector" fill-rule="evenodd" clip-rule="evenodd" d="M38.3231 56.3851H32.6731C31.4755 56.326 30.2865 56.1502 29.1231 55.8601C28.1545 55.4159 27.2261 54.8889 26.3481 54.2851C25.9459 54.1015 25.5141 53.9914 25.0731 53.9601C23.9981 53.9601 22.8481 54.9601 21.6731 55.5101C21.5774 55.5757 21.4641 55.6108 21.3481 55.6108C21.2321 55.6108 21.1188 55.5757 21.0231 55.5101C20.7731 55.3601 20.8731 55.0351 20.8731 54.7101C20.9582 53.5784 20.9582 52.4418 20.8731 51.3101C20.8525 51.065 20.7677 50.8297 20.6273 50.6278C20.4868 50.426 20.2957 50.2646 20.0731 50.1601C19.8155 50.0322 19.5238 49.9899 19.2405 50.0394C18.9572 50.0888 18.6971 50.2275 18.4981 50.4351C18.3481 50.5851 17.9481 51.5851 17.7481 51.9601L16.2731 53.8851C15.5602 54.6498 14.7128 55.2769 13.7731 55.7351C13.3854 55.9307 12.9573 56.0326 12.5231 56.0326C12.0889 56.0326 11.6607 55.9307 11.2731 55.7351C10.5412 55.3121 9.9096 54.7355 9.42191 54.0449C8.93422 53.3544 8.60199 52.5664 8.44809 51.7351C10.0019 49.3714 11.3167 46.8591 12.3731 44.2351C12.8481 43.1101 13.2731 41.9351 13.6481 40.7601C14.0231 39.5851 14.2481 38.2601 14.4731 37.1601C14.4731 37.1601 14.6481 35.8101 14.7231 35.3101C14.7319 35.2103 14.7319 35.1099 14.7231 35.0101C14.7541 34.8533 14.7541 34.6919 14.7231 34.5351C14.6826 34.3514 14.6049 34.178 14.4948 34.0256C14.3846 33.8731 14.2444 33.7449 14.0827 33.6489C13.921 33.5528 13.7413 33.4909 13.5548 33.467C13.3682 33.4432 13.1788 33.4578 12.9981 33.5101C10.9235 34.052 9.13462 35.3668 7.99809 37.1851C6.41113 39.5843 5.41715 42.3263 5.09809 45.1851C4.72719 47.5937 4.85482 50.0528 5.47309 52.4101C4.09691 54.3523 2.39717 56.0436 0.448094 57.4101C0.341221 57.4698 0.248075 57.5513 0.174678 57.6493C0.101281 57.7473 0.0492669 57.8596 0.0219991 57.979C-0.0052687 58.0984 -0.0071834 58.2221 0.0163788 58.3423C0.039941 58.4624 0.0884556 58.5763 0.158786 58.6765C0.229116 58.7767 0.319696 58.8611 0.42467 58.9241C0.529643 58.9871 0.646673 59.0274 0.768193 59.0423C0.889713 59.0573 1.01302 59.0466 1.13013 59.0109C1.24725 58.9752 1.35557 58.9153 1.44809 58.8351C3.18529 57.6967 4.75108 56.3161 6.09809 54.7351C6.85038 56.409 8.13316 57.7884 9.74809 58.6601C11.0559 59.2983 12.5577 59.4145 13.9481 58.9851C15.6533 58.4152 17.1733 57.3961 18.3481 56.0351C18.5329 56.6863 18.9398 57.2523 19.4981 57.6351C19.8545 57.8927 20.2632 58.0687 20.6952 58.1508C21.1273 58.2329 21.572 58.219 21.9981 58.1101C22.7282 57.8496 23.4056 57.4601 23.9981 56.9601C24.3481 56.7351 24.5981 56.4101 24.9481 56.4101C25.2981 56.4101 26.5481 57.2851 27.4481 57.7101C27.7819 57.8825 28.1342 58.0166 28.4981 58.1101C29.8255 58.364 31.1719 58.5062 32.5231 58.5351C34.4231 58.5351 36.3731 58.5351 38.2731 58.3601C38.4033 58.3601 38.5321 58.3341 38.6521 58.2836C38.772 58.233 38.8806 58.159 38.9715 58.0658C39.0624 57.9725 39.1337 57.8621 39.1812 57.7409C39.2287 57.6197 39.2514 57.4902 39.2481 57.3601C39.2372 57.1134 39.1376 56.879 38.9677 56.6998C38.7977 56.5207 38.5688 56.4089 38.3231 56.3851ZM8.17309 45.7601C8.43014 43.3987 9.2163 41.1257 10.4731 39.1101C10.7407 38.6725 11.0505 38.2622 11.3981 37.8851C11.2783 38.651 11.1197 39.4103 10.9231 40.1601C10.7036 41.2674 10.4198 42.3609 10.0731 43.4351C9.50897 44.9916 8.86648 46.5185 8.14809 48.0101C8.10673 47.2604 8.11508 46.5087 8.17309 45.7601Z" fill="var(--fill-0, white)" stroke="var(--fill-0, white)" stroke-width="1.0" stroke-linejoin="round" stroke-linecap="round" />
<path id="Vector_2" fill-rule="evenodd" clip-rule="evenodd" d="M59.8481 13.0351C59.7594 12.9421 59.6527 12.868 59.5345 12.8174C59.4164 12.7668 59.2892 12.7407 59.1606 12.7407C59.0321 12.7407 58.9048 12.7668 58.7867 12.8174C58.6685 12.868 58.5618 12.9421 58.4731 13.0351C57.4264 13.8543 56.4405 14.7483 55.5231 15.7101C53.8981 17.3351 52.3981 19.0601 50.7481 20.7101C50.8355 20.5183 50.8507 20.3015 50.791 20.0994C50.7313 19.8973 50.6007 19.7236 50.4231 19.6101C49.0231 18.3601 47.6981 17.1101 46.2481 15.8851L44.3731 14.4101C43.7319 13.9312 43.0641 13.4888 42.3731 13.0851C40.9731 12.2351 39.5231 11.5351 38.0981 10.7851C39.1731 7.53511 40.3731 4.31011 41.5231 1.21011C41.6073 0.994141 41.6048 0.754035 41.5163 0.539808C41.4279 0.325581 41.2601 0.153751 41.0481 0.0601108C40.8357 -0.0229753 40.5992 -0.0198186 40.3891 0.0689084C40.1789 0.157635 40.0117 0.324917 39.9231 0.535111C38.4231 3.73511 36.8731 7.01011 35.4731 10.3601C34.4981 12.6101 33.6231 14.8851 32.9731 17.1601C32.9016 17.5377 32.9528 17.9282 33.1193 18.2746C33.2857 18.621 33.5586 18.905 33.8981 19.0851L34.8231 19.6101L38.1981 21.3601L44.4731 25.0851C44.4731 26.7601 44.1481 29.1851 43.8481 31.6351C43.6231 33.5601 43.3231 35.4351 43.0481 36.8351C43.0481 37.5851 43.0481 38.5601 42.6731 38.4351C42.0783 38.8649 41.4315 39.2177 40.7481 39.4851C39.5231 40.0101 37.9731 40.4351 36.4231 41.0601C32.8291 42.4818 29.0633 43.4233 25.2231 43.8601C24.7481 40.3601 23.5981 31.9101 23.6231 30.7601C23.5582 29.8514 23.6799 28.939 23.9809 28.0791C24.2818 27.2192 24.7556 26.43 25.3731 25.7601C27.728 23.5901 30.4778 21.8926 33.4731 20.7601C33.5802 20.7163 33.6776 20.6517 33.7596 20.57C33.8415 20.4883 33.9065 20.3912 33.9506 20.2842C33.9948 20.1773 34.0173 20.0626 34.0169 19.9469C34.0165 19.8312 33.9931 19.7167 33.9481 19.6101C33.9094 19.5017 33.8491 19.4022 33.7708 19.3178C33.6926 19.2334 33.598 19.1658 33.4928 19.119C33.3876 19.0723 33.274 19.0474 33.1589 19.0458C33.0437 19.0443 32.9295 19.0662 32.8231 19.1101C29.3304 19.9014 26.0427 21.4175 23.1731 23.5601C22.1962 24.4873 21.433 25.6162 20.9365 26.8682C20.44 28.1202 20.2222 29.4654 20.2981 30.8101C20.2981 32.0601 22.1731 40.2101 22.9481 43.5351L23.2481 44.8101C23.2481 45.1851 22.2981 48.5101 39.2731 43.4601C41.5435 42.9522 43.6446 41.8673 45.3731 40.3101C45.7025 39.8602 45.917 39.3367 45.9981 38.7851C46.2425 37.5068 46.3846 36.211 46.4231 34.9101C46.5481 32.1101 46.4231 28.6851 46.4231 26.2101H46.5981C46.8507 26.3657 47.137 26.4583 47.4329 26.4801C47.7287 26.5018 48.0255 26.4521 48.2981 26.3351C49.4093 25.6242 50.433 24.7851 51.3481 23.8351C53.4731 21.7101 55.2231 19.2351 57.1981 16.9601C57.9606 16.0125 58.7965 15.1265 59.6981 14.3101C59.8688 14.149 59.9773 13.933 60.0047 13.6999C60.0321 13.4668 59.9767 13.2314 59.8481 13.0351ZM49.3981 21.8851C47.3731 23.9851 48.8231 23.9601 43.2481 20.4351C42.1481 19.7351 40.9981 19.0601 39.7981 18.4101L36.2981 16.6851C36.6231 15.3851 37.0481 14.1851 37.4481 12.7851C38.4731 13.7351 39.4481 14.7351 40.5231 15.6351C41.1481 16.1601 41.7731 16.6351 42.4231 17.0851C43.0731 17.5351 43.7231 17.9851 44.4231 18.4101C46.0231 19.3851 47.6481 20.2601 49.2731 21.1851C49.4703 21.3205 49.7122 21.3742 49.9481 21.3351L49.3981 21.8851Z" fill="var(--fill-0, white)" stroke="var(--fill-0, white)" stroke-width="1.0" stroke-linejoin="round" stroke-linecap="round" />
<path id="Vector_3" fill-rule="evenodd" clip-rule="evenodd" d="M28.4731 41.6851C29.1172 41.2239 29.6615 40.6371 30.0731 39.9601C30.4481 39.3601 30.7231 39.1601 31.0481 38.5351C31.7981 37.0351 32.398 35.5351 33.048 34.0601C38.573 35.4601 39.348 31.8101 39.473 30.6851C39.5606 29.7832 39.3911 28.8749 38.9841 28.0653C38.577 27.2557 37.9492 26.5778 37.173 26.1101C36.4602 25.6852 35.6607 25.4263 34.834 25.3527C34.0074 25.2792 33.1748 25.3928 32.3981 25.6851C31.6523 26.0599 31.0123 26.6155 30.5364 27.301C30.0604 27.9866 29.7636 28.7804 29.6731 29.6101C29.5411 30.2912 29.613 30.9961 29.8798 31.6364C30.1467 32.2768 30.5965 32.8242 31.173 33.2101C30.248 34.4101 29.2981 35.5851 28.3731 36.8351L27.1731 38.5601C26.7518 39.244 26.4555 39.9974 26.2981 40.7851C25.9731 42.5351 27.1231 42.5851 28.4731 41.6851ZM32.573 30.3101C32.6288 29.9827 32.7563 29.6716 32.9465 29.3993C33.1367 29.127 33.3848 28.9002 33.673 28.7351C34.0076 28.6172 34.3634 28.5718 34.7169 28.6019C35.0703 28.6321 35.4133 28.7372 35.723 28.9101C36.0509 29.0598 36.3302 29.2984 36.529 29.599C36.7279 29.8995 36.8385 30.2498 36.848 30.6101C36.848 32.0601 35.473 33.1101 33.073 31.6601C32.8375 31.5368 32.656 31.3305 32.5637 31.0812C32.4714 30.8318 32.4747 30.5571 32.573 30.3101Z" fill="var(--fill-0, white)" stroke="var(--fill-0, white)" stroke-width="1.0" stroke-linejoin="round" stroke-linecap="round" />
</g>
</svg>
