<svg preserveAspectRatio="none" width="100%" height="100%" overflow="visible" style="display: block;" viewBox="0 0 35 35" fill="none" xmlns="http://www.w3.org/2000/svg">
<g id="cursor-highlight-click-1--Streamline-Freehand" clip-path="url(#clip0_146_319)">
<path id="Vector" fill-rule="evenodd" clip-rule="evenodd" d="M18.5605 12.1625C21.8957 11.3546 24.0978 12.9602 22.8509 16.5448C22.0532 18.8052 16.9242 33.3215 14.1169 34.7302C13.485 35.0032 12.7831 35.0706 12.1108 34.9227C11.4384 34.7749 10.8296 34.4192 10.3705 33.9063C9.51826 32.218 8.88696 30.427 8.49216 28.5775C7.84028 25.7702 8.79258 26.7444 5.18466 25.4421C3.05549 24.6735 0.614242 23.8758 0.1782 21.6548C0.0618659 21.1345 0.126321 20.59 0.36094 20.1112C0.595558 19.6325 0.986332 19.2479 1.46883 19.021C6.87692 16.0716 12.6137 13.7695 18.5605 12.1625ZM2.06966 20.0667C0.636118 20.93 1.71528 22.6333 3.46966 23.2633C10.8517 25.9015 9.0507 23.9692 10.1328 28.1735C10.521 29.7514 11.0662 31.2864 11.7603 32.7556C11.9722 32.9706 12.2473 33.112 12.5455 33.1593C12.8436 33.2065 13.149 33.157 13.4169 33.0181C15.1611 31.8165 20.1822 18.5398 21.1169 15.9279C21.7411 14.1998 21.4407 13.3219 18.9688 13.8833C13.1142 15.2845 7.44324 17.3646 2.07112 20.0813V20.0696L2.06966 20.0667Z" fill="var(--fill-0, black)" stroke="var(--fill-0, black)" stroke-width="1.0" stroke-linejoin="round" stroke-linecap="round" />
<path id="Vector_2" fill-rule="evenodd" clip-rule="evenodd" d="M34.4713 9.55208C32.3799 10.8732 30.0464 11.7646 27.6069 12.1742C27.4538 12.2252 27.2866 12.2133 27.1422 12.1411C26.9978 12.0689 26.888 11.9423 26.8369 11.7892C26.7859 11.636 26.7977 11.4688 26.8699 11.3244C26.9421 11.18 27.0688 11.0702 27.2219 11.0192C28.4877 10.29 29.8148 9.67313 31.1886 9.17438C35.6263 7.54104 35.0838 9.34354 34.4713 9.55208Z" fill="var(--fill-0, black)" stroke="var(--fill-0, black)" stroke-width="1.0" stroke-linejoin="round" stroke-linecap="round" />
<path id="Vector_3" fill-rule="evenodd" clip-rule="evenodd" d="M24.865 0.63C25.409 10.395 22.9109 9.16125 22.9094 8.155C22.7993 5.5835 23.073 3.00994 23.7217 0.519167C23.7269 0.4425 23.7475 0.367658 23.7821 0.29907C23.8168 0.230481 23.8648 0.16954 23.9234 0.119853C23.9821 0.0701654 24.0501 0.032741 24.1234 0.0097941C24.1967 -0.0131527 24.2739 -0.0211558 24.3504 -0.0137413C24.4269 -0.00632693 24.5011 0.0163543 24.5687 0.0529601C24.6362 0.0895659 24.6958 0.139353 24.7438 0.199374C24.7917 0.259395 24.8272 0.328432 24.848 0.402399C24.8689 0.476365 24.8747 0.553759 24.865 0.63Z" fill="var(--fill-0, black)" stroke="var(--fill-0, black)" stroke-width="1.0" stroke-linejoin="round" stroke-linecap="round" />
<path id="Vector_4" fill-rule="evenodd" clip-rule="evenodd" d="M15.314 0.538125C16.6766 2.8543 17.5654 5.41809 17.9288 8.08063C17.9541 8.15646 17.9642 8.23654 17.9585 8.31628C17.9529 8.39602 17.9316 8.47386 17.8958 8.54536C17.8601 8.61686 17.8106 8.68062 17.7502 8.733C17.6898 8.78538 17.6197 8.82535 17.5438 8.85063C17.468 8.87591 17.3879 8.886 17.3082 8.88033C17.2284 8.87467 17.1506 8.85335 17.0791 8.8176C17.0076 8.78185 16.9438 8.73236 16.8915 8.67197C16.8391 8.61158 16.7991 8.54146 16.7738 8.46563C15.5063 6.11968 14.6459 3.57576 14.229 0.942083C14.1972 0.869862 14.1805 0.7919 14.1799 0.712984C14.1794 0.634069 14.1949 0.555867 14.2256 0.483182C14.2564 0.410497 14.3017 0.344864 14.3587 0.290315C14.4157 0.235765 14.4833 0.19345 14.5573 0.165969C14.6313 0.138489 14.7101 0.126423 14.7889 0.130512C14.8677 0.134602 14.9448 0.154761 15.0156 0.18975C15.0863 0.22474 15.1491 0.273822 15.2002 0.333982C15.2513 0.394141 15.2895 0.464107 15.3126 0.539583L15.314 0.538125Z" fill="var(--fill-0, black)" stroke="var(--fill-0, black)" stroke-width="1.0" stroke-linejoin="round" stroke-linecap="round" />
<path id="Vector_5" fill-rule="evenodd" clip-rule="evenodd" d="M13.5862 11.9044C11.051 11.091 8.68988 9.81151 6.62417 8.13167C6.55254 8.0972 6.48841 8.04895 6.43543 7.9897C6.38244 7.93044 6.34165 7.86132 6.31538 7.7863C6.28911 7.71128 6.27787 7.63182 6.28231 7.55245C6.28675 7.47309 6.30678 7.39538 6.34125 7.32375C6.37572 7.25213 6.42396 7.18799 6.48322 7.13501C6.54248 7.08203 6.61159 7.04124 6.68661 7.01497C6.76164 6.9887 6.8411 6.97746 6.92046 6.9819C6.99983 6.98634 7.07754 7.00636 7.14917 7.04083C9.63771 7.93606 11.9666 9.22458 14.0471 10.8573C14.1719 10.927 14.2662 11.0408 14.3117 11.1763C14.3571 11.3119 14.3504 11.4595 14.2928 11.5904C14.2352 11.7212 14.1309 11.8259 14.0002 11.884C13.8696 11.9421 13.722 11.9493 13.5862 11.9044Z" fill="var(--fill-0, black)" stroke="var(--fill-0, black)" stroke-width="1.0" stroke-linejoin="round" stroke-linecap="round" />
<path id="Vector_6" fill-rule="evenodd" clip-rule="evenodd" d="M33.9902 21.2465C31.3778 20.1607 28.9028 18.77 26.6168 17.1033C25.7958 16.7183 25.6339 13.4837 34.5648 20.249C34.6906 20.3283 34.7808 20.4533 34.8166 20.5977C34.8523 20.7421 34.8308 20.8948 34.7566 21.0237C34.6823 21.1526 34.5611 21.2478 34.4182 21.2893C34.2753 21.3308 34.122 21.3155 33.9902 21.2465Z" fill="var(--fill-0, black)" stroke="var(--fill-0, black)" stroke-width="1.0" stroke-linejoin="round" stroke-linecap="round" />
<path id="Vector_7" fill-rule="evenodd" clip-rule="evenodd" d="M26.2543 29.6873C24.928 27.2211 23.9606 24.5782 23.3814 21.8385C22.8695 20.6033 25.2802 19.2471 27.3364 29.3008C27.3849 29.4436 27.3753 29.5998 27.3096 29.7356C27.244 29.8714 27.1276 29.9759 26.9856 30.0266C26.8435 30.0773 26.6873 30.0702 26.5505 30.0067C26.4137 29.9432 26.3073 29.8285 26.2543 29.6873Z" fill="var(--fill-0, black)" stroke="var(--fill-0, black)" stroke-width="1.0" stroke-linejoin="round" stroke-linecap="round" />
</g>
<defs>
<clipPath id="clip0_146_319">
<rect width="35" height="35" fill="white"/>
</clipPath>
</defs>
</svg>
