<svg width="100%" height="100%" overflow="visible" style="display: block;" viewBox="0 0 60.014 34.8804" fill="none" xmlns="http://www.w3.org/2000/svg">
<g id="Group">
<path id="Vector" fill-rule="evenodd" clip-rule="evenodd" d="M59.1472 13.755C55.7394 9.85162 51.5487 6.70858 46.8472 4.53005C42.3331 2.28503 37.4737 0.814553 32.4722 0.180046C29.9766 -0.102685 27.4545 -0.0522431 24.9722 0.330046C18.3941 1.26501 12.1125 3.67509 6.59723 7.38005C4.48833 8.76873 2.51316 10.3505 0.697228 12.105C0.486554 12.3221 0.294229 12.5562 0.122228 12.805C0.0423613 12.9324 0 13.0797 0 13.23C0 13.3804 0.0423613 13.5277 0.122228 13.655C0.167132 13.7447 0.229547 13.8244 0.305785 13.8895C0.382023 13.9546 0.470536 14.0037 0.566092 14.034C0.661649 14.0643 0.762309 14.0751 0.862125 14.0659C0.96194 14.0566 1.05888 14.0274 1.14723 13.98C3.99369 10.9932 7.38888 8.58258 11.1472 6.88005C13.5453 5.66153 16.0574 4.68181 18.6472 3.95505C20.8722 3.31595 23.1468 2.86437 25.4472 2.60505C27.688 2.31704 29.9564 2.31704 32.1972 2.60505C36.9182 3.32629 41.4879 4.82136 45.7222 7.03005C49.9438 9.04445 53.7313 11.8639 56.8722 15.33C57.0917 15.7101 57.2072 16.1412 57.2072 16.58C57.2072 17.0189 57.0917 17.45 56.8722 17.83C56.3712 18.8776 55.6852 19.8262 54.8472 20.63C52.5638 22.99 50.0515 25.1171 47.3472 26.98C44.6115 28.7996 41.6542 30.2615 38.5472 31.33C36.5817 31.9641 34.5365 32.3176 32.4722 32.38C29.3496 32.4415 26.2264 32.2996 23.1222 31.955C19.2408 31.361 15.5751 29.7864 12.4722 27.38C9.22394 25.0405 6.44974 22.1052 4.29723 18.73C4.24058 18.629 4.16388 18.5406 4.07183 18.4703C3.97979 18.4 3.87434 18.3492 3.76196 18.3211C3.64959 18.293 3.53265 18.2882 3.41834 18.3069C3.30403 18.3257 3.19476 18.3676 3.09723 18.43C2.90571 18.5622 2.77104 18.7617 2.72008 18.9887C2.66911 19.2158 2.70558 19.4537 2.82223 19.655C5.02601 23.2682 7.89302 26.4321 11.2722 28.98C14.6431 31.6828 18.657 33.4657 22.9222 34.155C26.0866 34.6027 29.2766 34.8449 32.4722 34.88C34.7218 34.8919 36.9613 34.5804 39.1222 33.955C42.4815 32.8921 45.6846 31.3873 48.6472 29.48C51.5727 27.5532 54.2876 25.3243 56.7472 22.83C58.1172 21.5526 59.1481 19.9547 59.7472 18.18C59.997 17.4464 60.0728 16.6648 59.9687 15.8968C59.8645 15.1289 59.5833 14.3957 59.1472 13.755Z" fill="var(--fill-0, black)" stroke="var(--fill-0, black)" stroke-width="1.0" stroke-linejoin="round" stroke-linecap="round" />
<path id="Vector_2" fill-rule="evenodd" clip-rule="evenodd" d="M26.7472 10.23C28.7047 9.6189 30.7824 9.4987 32.7972 9.88005C33.7819 10.1189 34.7061 10.5601 35.511 11.1756C36.3158 11.791 36.9838 12.5673 37.4722 13.455C37.5196 13.5455 37.5844 13.6258 37.6629 13.6911C37.7414 13.7565 37.8321 13.8057 37.9296 13.8359C38.0272 13.8661 38.1298 13.8767 38.2315 13.8671C38.3332 13.8575 38.432 13.8279 38.5222 13.78C38.7007 13.6801 38.8324 13.5136 38.8886 13.3169C38.9448 13.1202 38.9209 12.9092 38.8222 12.73C38.2896 11.6141 37.5297 10.6218 36.5911 9.81677C35.6526 9.0117 34.5562 8.41164 33.3722 8.05505C31.0356 7.39032 28.5709 7.31303 26.1972 7.83005C24.8633 8.16436 23.63 8.81643 22.6026 9.73062C21.5752 10.6448 20.7843 11.794 20.2972 13.08C19.25 15.6093 19.25 18.4508 20.2972 20.98C21.4645 23.4418 23.545 25.3518 26.0972 26.305C28.546 27.26 31.2374 27.4003 33.7722 26.705C36.0183 26.0521 37.9313 24.5682 39.1222 22.555C40.3198 20.618 40.8713 18.3507 40.6972 16.08C40.682 15.9679 40.6445 15.8599 40.5869 15.7625C40.5294 15.665 40.453 15.5801 40.3622 15.5125C40.2714 15.445 40.168 15.3963 40.0581 15.3692C39.9482 15.3422 39.834 15.3374 39.7222 15.355C39.6079 15.3672 39.4972 15.4025 39.3969 15.4587C39.2965 15.5149 39.2086 15.5909 39.1385 15.682C39.0684 15.7732 39.0175 15.8776 38.9889 15.989C38.9604 16.1004 38.9547 16.2164 38.9722 16.33C38.9681 18.122 38.4092 19.8686 37.3722 21.33C36.4085 22.8167 34.9008 23.8667 33.1722 24.255C31.1566 24.6897 29.055 24.4708 27.1722 23.63C25.3048 22.9778 23.7575 21.6362 22.8472 19.88C22.1107 18.0687 22.1107 16.0414 22.8472 14.23C23.126 13.298 23.6264 12.4473 24.3056 11.7507C24.9848 11.0541 25.8225 10.5324 26.7472 10.23Z" fill="var(--fill-0, black)" stroke="var(--fill-0, black)" stroke-width="1.0" stroke-linejoin="round" stroke-linecap="round" />
</g>
</svg>
