<svg preserveAspectRatio="none" width="100%" height="100%" overflow="visible" style="display: block;" viewBox="0 0 60.0661 56.385" fill="none" xmlns="http://www.w3.org/2000/svg">
<g id="Group">
<path id="Vector" d="M59.9944 34.6896C60.2377 27.3958 59.8614 20.0946 58.8694 12.8646C58.9086 12.3487 58.9086 11.8305 58.8694 11.3146C58.5194 9.63958 53.4944 8.81458 51.3694 8.61458C51.1741 8.59334 50.9784 8.64952 50.8241 8.77106C50.6698 8.8926 50.5694 9.06979 50.5444 9.26458C50.4194 10.9146 53.0444 9.26458 57.0694 11.7646C57.0195 13.5414 57.162 15.3184 57.4944 17.0646C58.0944 22.6646 57.7694 26.5396 57.4944 41.4146C54.5238 40.7681 51.4809 40.5159 48.4444 40.6646C42.7825 40.6253 37.2529 42.3751 32.6444 45.6646C34.3444 39.0646 38.4944 37.2896 44.3444 35.1896C45.0071 34.9819 45.7004 34.8889 46.3944 34.9146C46.5299 35.2213 46.7693 35.4704 47.0703 35.6181C47.3714 35.7658 47.7149 35.8025 48.0405 35.7219C48.366 35.6413 48.6526 35.4484 48.85 35.1773C49.0473 34.9061 49.1427 34.5741 49.1194 34.2396C48.1694 8.96458 49.1194 5.41458 48.7194 3.06458C48.3194 0.714581 46.6194 0.439581 44.2444 0.0895808C41.327 -0.21635 38.381 0.264571 35.7124 1.48237C33.0438 2.70017 30.75 4.61041 29.0694 7.01458C28.8694 7.43958 27.6944 10.0396 27.5944 10.3146C25.8882 9.01119 23.9169 8.09805 21.8194 7.63958C16.4342 6.44473 10.7962 7.33823 6.04438 10.1396C5.11827 10.7412 4.32539 11.5264 3.71479 12.4466C3.10418 13.3668 2.68882 14.4025 2.49439 15.4896C0.294387 24.3896 -1.03061 27.0146 1.01939 45.9396C1.01939 46.7146 1.01939 47.9146 1.76939 48.6396C1.93748 48.7799 2.13425 48.8816 2.34588 48.9378C2.5575 48.9939 2.77885 49.0031 2.99439 48.9646V50.8896C3.31939 55.3896 9.29438 52.6396 15.8694 52.0896C21.3194 51.6646 21.9194 52.8396 26.7444 55.6396C28.7306 56.3864 30.883 56.5766 32.9694 56.1896C34.6793 55.9328 36.301 55.2635 37.6944 54.2396C54.1694 42.1146 53.5944 56.2896 57.4444 46.1146C57.6226 45.6496 57.7321 45.1611 57.7694 44.6646C57.9633 44.792 58.1874 44.8663 58.419 44.8799C58.6507 44.8935 58.8819 44.8461 59.0895 44.7423C59.2971 44.6385 59.4737 44.482 59.6018 44.2885C59.7299 44.095 59.8049 43.8712 59.8194 43.6396C60.0491 40.662 60.1075 37.6738 59.9944 34.6896ZM29.6944 11.6396C37.1944 -2.46042 46.4944 3.73958 46.8944 4.13958C47.0944 4.88958 45.9694 21.8396 45.9194 23.3896L46.1444 32.0146C43.371 32.3121 40.6906 33.1864 38.2753 34.5814C35.8599 35.9763 33.7631 37.8611 32.1194 40.1146C30.8694 42.2646 31.2944 42.4896 31.0694 41.0646C31.0194 40.8146 29.5944 11.8396 29.6944 11.6396ZM2.69439 22.4896C3.41939 19.7146 4.31939 12.6646 6.71938 11.8646C13.7194 9.51458 20.7194 8.93958 27.2194 12.4896C27.9907 14.6357 28.3388 16.911 28.2444 19.1896C28.2444 24.3146 28.3944 39.7896 28.9944 44.4396C25.0147 42.6249 20.6649 41.7686 16.2944 41.9396C12.8373 42.2468 9.45664 43.1342 6.29438 44.5646C5.99438 44.5646 4.59439 45.9896 3.59439 46.5396C3.59439 46.1896 3.31939 45.7896 3.29439 45.5896C2.49439 38.7896 1.31939 29.8396 2.69439 22.4896ZM54.0944 47.0646C46.8944 44.1896 41.1694 48.2646 36.0694 51.9146C34.9795 52.6439 33.7517 53.1421 32.4617 53.3786C31.1718 53.6151 29.8471 53.5848 28.5694 53.2896C18.8944 46.4396 15.1444 49.7146 6.39438 51.0396C5.94438 51.0396 5.59439 51.2646 5.36939 51.0396C5.14439 50.8146 4.89439 49.3646 4.31939 48.5396C5.39439 47.9896 6.81938 47.1146 7.16938 47.0146C10.8444 45.8646 14.9944 43.1646 23.9944 45.6646C30.6444 47.3896 30.2944 50.2896 32.5444 49.0646C35.8944 47.2646 40.7194 41.8646 55.8194 43.6896C55.6679 43.8717 55.5879 44.1028 55.5944 44.3396C54.1194 46.9896 54.1944 46.8146 54.0944 47.0646Z" fill="var(--fill-0, black)" stroke="var(--fill-0, black)" stroke-width="1.0" stroke-linejoin="round" stroke-linecap="round" />
<path id="Vector_2" d="M9.11917 20.6646C11.6192 20.3146 11.4192 19.0896 14.7192 19.0896C16.5589 19.2231 18.3738 19.5928 20.1192 20.1896C20.5942 20.0146 20.9442 19.8146 20.9442 19.3396C20.9442 18.2646 19.4442 17.1646 17.1692 16.8396C10.5942 15.6146 9.96917 18.7646 8.71917 19.3396C8.60497 19.4336 8.52113 19.5594 8.47821 19.701C8.43529 19.8425 8.43521 19.9937 8.47797 20.1353C8.52072 20.2769 8.60441 20.4027 8.71851 20.4969C8.8326 20.5911 8.972 20.6494 9.11917 20.6646Z" fill="var(--fill-0, black)" stroke="var(--fill-0, black)" stroke-width="1.0" stroke-linejoin="round" stroke-linecap="round" />
<path id="Vector_3" d="M9.11977 29.4896C11.6198 29.1396 11.4198 27.9146 14.7198 27.9146C16.5595 28.0481 18.3744 28.4178 20.1198 29.0146C20.5948 28.8646 20.9448 28.6396 20.9448 28.1646C20.9448 27.0896 19.4448 26.0146 17.1698 25.6646C10.5948 24.4396 9.96977 27.5646 8.71977 28.1646C8.59689 28.152 8.47278 28.1699 8.35848 28.2167C8.24419 28.2636 8.14323 28.338 8.06459 28.4332C7.98595 28.5285 7.93206 28.6417 7.9077 28.7628C7.88335 28.8839 7.88929 29.0092 7.92499 29.1274C7.96069 29.2457 8.02505 29.3533 8.11235 29.4407C8.19965 29.5281 8.30718 29.5926 8.4254 29.6284C8.54362 29.6643 8.66886 29.6703 8.79 29.6461C8.91114 29.6219 9.02441 29.5681 9.11977 29.4896Z" fill="var(--fill-0, black)" stroke="var(--fill-0, black)" stroke-width="1.0" stroke-linejoin="round" stroke-linecap="round" />
<path id="Vector_4" d="M9.11959 38.4146C11.6196 38.0646 11.4196 36.8396 14.7196 36.8396C16.5574 36.987 18.3706 37.3564 20.1196 37.9396C20.5946 37.7896 20.9446 37.5646 20.9446 37.1146C20.9446 36.0146 19.4446 34.9396 17.1696 34.6146C10.5946 33.3896 9.96959 36.5396 8.71959 37.1146C8.59473 37.0974 8.46755 37.1119 8.3498 37.1569C8.23206 37.2019 8.12754 37.2758 8.04591 37.3718C7.96428 37.4678 7.90816 37.5829 7.88275 37.7063C7.85734 37.8298 7.86345 37.9576 7.90051 38.0781C7.93758 38.1986 8.00441 38.3078 8.09482 38.3956C8.18524 38.4834 8.29633 38.547 8.41782 38.5805C8.53932 38.6141 8.66731 38.6164 8.78996 38.5874C8.91262 38.5584 9.02599 38.499 9.11959 38.4146Z" fill="var(--fill-0, black)" stroke="var(--fill-0, black)" stroke-width="1.0" stroke-linejoin="round" stroke-linecap="round" />
</g>
</svg>
